<?xml version="1.0" encoding="utf-8"?>
<!-- Generator: Adobe Illustrator 15.0.0, SVG Export Plug-In  -->
<!DOCTYPE svg PUBLIC "-//W3C//DTD SVG 1.1//EN" "http://www.w3.org/Graphics/SVG/1.1/DTD/svg11.dtd" [
	<!ENTITY ns_flows "http://ns.adobe.com/Flows/1.0/">
]>
<svg version="1.1"
	 xmlns="http://www.w3.org/2000/svg" xmlns:xlink="http://www.w3.org/1999/xlink" xmlns:a="http://ns.adobe.com/AdobeSVGViewerExtensions/3.0/"
	 x="0px" y="0px" width="64px" height="64px" viewBox="-0.2807617 0 64 64" enable-background="new -0.2807617 0 64 64"
	 xml:space="preserve">
<defs>
</defs>
<path fill="#4A4A4A" d="M50.4858398,19.8149414c-3.1083984-3.3901367-7.0888672-5.0854492-11.9404297-5.0854492h-0.3994141
	v34.3505859h0.3994141c4.8515625,0,8.8320313-1.6777344,11.9404297-5.0351563
	c3.1074219-3.3564453,4.6611328-7.3867188,4.6611328-12.0898438S53.5932617,23.2050781,50.4858398,19.8149414z"/>
<path fill="#4A4A4A" d="M32.0009766,2.5C15.734375,2.5,2.5004883,15.7333984,2.5004883,32S15.734375,61.5,32.0009766,61.5
	c16.2661133,0,29.4995117-13.2333984,29.4995117-29.5S48.2670898,2.5,32.0009766,2.5z M29.0722656,39.1591797
	c0,3.6230469-0.9892578,6.5644531-2.9663086,8.8242188c-1.9780273,2.2607422-4.5620117,3.390625-7.7524414,3.390625h-0.4985352
	c-2.659668,0-5.1025391-0.9472656-7.3291016-2.8417969v-2.0439453c2.0942383,2.2929688,4.6030273,3.4394531,7.5283203,3.4394531
	c2.9243164,0,5.2177734-0.9882813,6.8803711-2.9658203c1.6616211-1.9775391,2.4926758-4.5126953,2.4926758-7.6035156V14.6796875
	h-9.2236328v-1.4458008h10.8686523V39.1591797z M51.6821289,45.1416016
	c-3.4072266,3.6572266-7.9189453,5.484375-13.5361328,5.484375H36.550293V13.2338867h1.5957031
	c5.5839844,0,10.0878906,1.8369141,13.5107422,5.5092773c3.4228516,3.6728516,5.1357422,8.0766602,5.1357422,13.2119141
	C56.7924805,37.0898438,55.0883789,41.4863281,51.6821289,45.1416016z"/>
<path fill="#4A4A4A" d="M32.0004883,0C14.3271484,0,0,14.3271484,0,32s14.3271484,32,32.0004883,32
	c17.6728516,0,32-14.3271484,32-32S49.6733398,0,32.0004883,0z M32.0009766,62.5C15.1831055,62.5,1.5004883,48.8173828,1.5004883,32
	c0-16.8178711,13.6826172-30.5,30.5004883-30.5S62.5004883,15.1821289,62.5004883,32
	C62.5004883,48.8173828,48.8188477,62.5,32.0009766,62.5z"/>
</svg>
